<svg width="481" height="161" viewBox="0 0 481 161" fill="none" xmlns="http://www.w3.org/2000/svg">
<path d="M163.771 118.973V146.116C161.618 146.488 159.653 146.677 157.877 146.677C147.357 146.677 138.59 143.217 131.577 136.295C124.562 129.378 121.056 120.704 121.056 110.277C121.056 100.131 124.598 91.5237 131.681 84.4657C138.766 77.4039 147.379 73.8768 157.527 73.8768C168.843 73.8768 177.761 77.1828 184.283 83.7985C190.806 90.417 194.067 99.4514 194.067 110.905V145.203H167.837V112.797C167.837 109.108 166.936 106.161 165.136 103.962C163.337 101.766 160.917 100.668 157.877 100.668C155.119 100.668 152.735 101.673 150.724 103.682C148.713 105.693 147.708 108.076 147.708 110.836C147.708 113.736 148.62 116.121 150.444 117.988C152.266 119.86 154.581 120.794 157.387 120.794C159.677 120.794 161.806 120.188 163.771 118.973Z" fill="white"/>
<path d="M264.681 145.273H238.449V105.786C238.449 101.766 236.788 99.7564 233.472 99.7564C230.198 99.7564 228.562 101.766 228.562 105.786V145.273H202.329V106.274C202.329 97.1607 205.347 89.4795 211.379 83.2386C217.41 76.994 224.796 73.8763 233.544 73.8763C243.549 73.8763 251.565 77.4981 257.6 84.7464C262.32 90.4044 264.681 98.2842 264.681 108.383V145.273Z" fill="white"/>
<path d="M413.188 145.273H386.955V49.5362H413.188V145.273Z" fill="white"/>
<path d="M481 74.2113V101.933C477.296 101.933 474.749 102.624 473.367 104.008C471.983 105.393 471.105 108.128 470.73 112.206C469.511 125.762 464.258 135.331 454.968 140.912C450.044 143.819 443.053 145.272 434.003 145.272H421.276V117.413H431.54C435.764 117.413 438.774 116.533 440.581 114.773C442.383 113.015 443.429 109.928 443.709 105.522C444.085 98.3428 444.754 93.3014 445.717 90.3936C446.68 87.4868 448.641 84.6025 451.589 81.7407C456.752 76.7218 463.907 74.2113 473.047 74.2113H481Z" fill="white"/>
<path d="M422.063 77.189L425.33 73.9187C422.523 70.7579 421.144 67.2692 421.185 63.4619C421.233 59.6583 422.686 56.3223 425.553 53.4568C428.568 50.4431 432.106 48.9195 436.168 48.8913C440.227 48.8614 443.748 50.3354 446.732 53.3209C449.626 56.2183 451.031 59.6808 450.939 63.713C450.849 67.7405 449.285 71.277 446.24 74.3253C443.075 77.488 439.303 79.334 434.931 79.8531C430.56 80.3732 426.268 79.4895 422.063 77.189Z" fill="white"/>
<path d="M145.781 46.0186C144.874 46.9182 143.775 47.3699 142.491 47.3699C141.208 47.3699 140.109 46.9182 139.197 46.0158C138.285 45.1125 137.83 44.0245 137.83 42.751C137.83 41.4551 138.285 40.3671 139.197 39.4797C140.109 38.5961 141.235 38.1547 142.57 38.1547C143.827 38.1547 144.9 38.6064 145.797 39.5097C146.694 40.4084 147.142 41.4907 147.142 42.751C147.142 44.0311 146.689 45.119 145.781 46.0186ZM158.344 27.1788C154.05 22.8589 148.898 20.698 142.89 20.698C136.487 20.698 131.1 22.8158 126.733 27.0513C122.37 31.2916 120.189 36.5111 120.189 42.7192C120.189 48.8111 122.37 54.0193 126.733 58.343C131.1 62.6638 136.356 64.8266 142.508 64.8266C148.655 64.8266 153.909 62.6694 158.258 58.3617C162.609 54.0559 164.783 48.8383 164.783 42.7192C164.783 36.6835 162.636 31.5024 158.344 27.1788Z" fill="white"/>
<path d="M189.011 -5.70782e-06V23.602C192.08 21.3737 195.146 20.2595 198.214 20.2595C202.864 20.2595 206.552 21.9387 209.28 25.2972C212.009 28.6556 213.374 33.1911 213.374 38.9081V61.7221H195.261V43.9918C195.261 41.9255 195.042 40.5396 194.605 39.8284C194.169 39.119 193.323 38.762 192.065 38.762C190.03 38.762 189.011 40.2632 189.011 43.2674V61.7221H170.899V-5.70782e-06H189.011Z" fill="white"/>
<path d="M264.117 62.1469H246.003V42.6764C246.003 39.898 244.858 38.5092 242.567 38.5092C240.306 38.5092 239.175 39.898 239.175 42.6764V62.1469H221.064V43.0128C221.064 36.7157 223.144 31.4147 227.308 27.1032C231.474 22.7927 236.578 20.6365 242.613 20.6365C249.522 20.6365 255.06 23.1413 259.224 28.1462C262.486 32.051 264.117 37.4907 264.117 44.4662V62.1469Z" fill="white"/>
<path d="M87.4372 0.426023C87.4372 0.426023 87.3979 91.217 87.3979 92.4933C87.3979 112.237 85.6455 119.05 78.4516 125.858C72.355 131.628 65.2914 134.718 56.8624 134.718C48.4316 134.718 41.2255 131.753 35.2433 125.83C29.2591 119.905 26.2699 112.765 26.2699 104.414C26.2699 95.9071 29.2591 88.7497 35.2433 82.9389C41.2255 77.131 48.6068 74.2279 57.3872 74.2279C63.1605 74.2279 68.3566 75.6888 72.9773 78.6059V50.2314C68.1973 48.9139 63.1652 48.2345 57.8623 48.2345C41.5366 48.2345 27.8113 53.6358 16.6874 64.4336C5.56058 75.2371 0 88.5454 0 104.365C0 119.896 5.56058 133.17 16.6874 144.186C27.8113 155.2 41.2096 160.709 56.8849 160.709C72.5612 160.709 85.9426 155.216 97.0319 144.241C108.018 133.361 113.179 120.47 113.656 97.9789H113.665V0.426023H87.4372Z" fill="white"/>
<path d="M285.559 88.5258C280.884 88.5624 276.68 87.2842 272.947 84.7026V145.273H299.173V83.8236C295.171 86.9178 290.63 88.4874 285.559 88.5258Z" fill="white"/>
<path d="M336.276 115.845C334.078 114.039 332.98 111.621 332.98 108.58C332.98 105.823 333.988 103.439 335.995 101.428C338.01 99.4169 340.389 98.4142 343.147 98.4142C346.048 98.4142 348.437 99.3241 350.302 101.15C351.276 102.098 351.99 103.182 352.458 104.397H342.817V111.671H378.811C378.923 110.589 378.989 109.552 378.989 108.58C378.989 98.0609 375.534 89.2965 368.607 82.2825C361.689 75.2667 353.017 71.762 342.589 71.762C332.441 71.762 323.841 75.3051 316.779 82.3875C309.716 89.4717 306.189 98.0834 306.189 108.233C306.189 119.549 309.495 128.469 316.115 134.99C322.73 141.514 331.765 144.774 343.219 144.774H371.614V118.544H345.114C341.42 118.544 338.477 117.645 336.276 115.845Z" fill="white"/>
<path d="M300.953 65.1023C300.953 73.3308 294.288 79.9971 286.058 79.9971C277.835 79.9971 271.166 73.3308 271.166 65.1023C271.166 56.8739 277.835 50.2095 286.058 50.2095C294.288 50.2095 300.953 56.8739 300.953 65.1023Z" fill="white"/>
</svg>
