<svg width="596" height="596" viewBox="0 0 596 596" fill="none" xmlns="http://www.w3.org/2000/svg">
<path d="M144.252 221.022C144.22 220.017 143.97 219.052 143.502 218.128C143.033 217.205 142.352 216.34 141.458 215.533C140.565 214.728 139.467 214.028 138.166 213.435C136.864 212.843 135.617 212.474 134.422 212.33C133.228 212.185 132.128 212.239 131.124 212.492C130.119 212.745 129.228 213.189 128.448 213.826C127.669 214.462 127.056 215.271 126.609 216.251C126.163 217.231 125.956 218.224 125.987 219.23C126.019 220.235 126.267 221.206 126.73 222.142C127.193 223.078 127.871 223.949 128.764 224.754C129.658 225.561 130.755 226.26 132.056 226.853C133.358 227.445 134.606 227.814 135.8 227.959C136.995 228.103 138.098 228.043 139.107 227.778C140.118 227.513 141.012 227.063 141.792 226.426C142.571 225.79 143.183 224.981 143.629 224.001C144.076 223.021 144.284 222.028 144.252 221.022ZM145.248 230.485C143.936 231.678 142.447 232.561 140.78 233.133C139.115 233.706 137.312 233.928 135.373 233.8C133.434 233.671 131.448 233.145 129.414 232.218C127.38 231.292 125.678 230.14 124.308 228.761C122.939 227.383 121.923 225.878 121.261 224.245C120.599 222.612 120.287 220.91 120.325 219.136C120.363 217.364 120.767 215.632 121.537 213.94C122.307 212.25 123.345 210.814 124.651 209.634C125.959 208.454 127.445 207.577 129.111 207.004C130.777 206.432 132.58 206.209 134.519 206.337C136.458 206.466 138.444 206.993 140.478 207.919C142.512 208.846 144.214 209.998 145.584 211.376C146.953 212.754 147.969 214.26 148.631 215.893C149.293 217.525 149.608 219.222 149.575 220.982C149.543 222.743 149.142 224.469 148.372 226.16C147.602 227.851 146.56 229.293 145.248 230.485Z" fill="white"/>
<path d="M155.848 201.114C156.643 199.929 157.235 198.9 157.626 198.027C158.016 197.154 158.241 196.397 158.299 195.754C158.357 195.113 158.263 194.563 158.017 194.107C157.772 193.651 157.404 193.258 156.911 192.927C155.816 192.193 154.701 192.175 153.567 192.874C152.434 193.573 151.207 194.907 149.888 196.875L148.359 199.156L154.431 203.228L155.848 201.114ZM145.918 194.165C147.088 192.421 147.73 191.028 147.845 189.986C147.959 188.944 147.558 188.116 146.641 187.501C145.702 186.871 144.774 186.841 143.857 187.41C142.941 187.979 141.875 189.169 140.661 190.981L139.266 193.061L144.366 196.48L145.918 194.165ZM131.88 194.722L135.62 189.142C136.792 187.394 137.941 185.899 139.067 184.655C140.192 183.412 141.314 182.475 142.433 181.845C143.554 181.215 144.674 180.91 145.794 180.93C146.916 180.951 148.057 181.351 149.221 182.131C150.562 183.031 151.418 184.159 151.788 185.517C152.159 186.876 152.138 188.2 151.726 189.49C152.335 188.922 152.979 188.432 153.658 188.024C154.338 187.615 155.057 187.34 155.817 187.197C156.577 187.054 157.363 187.068 158.174 187.236C158.984 187.405 159.826 187.782 160.698 188.366C163.002 189.911 164.058 192 163.866 194.632C163.674 197.264 162.248 200.563 159.589 204.529L155.533 210.579L131.88 194.722Z" fill="white"/>
<path d="M148.71 170.946L160.781 157.52L164.867 161.193L156.684 170.294L161.25 174.398L167.758 167.159L171.632 170.643L165.124 177.882L169.9 182.176L178.164 172.985L182.039 176.468L169.886 189.985L148.71 170.946Z" fill="white"/>
<path d="M164.809 153.28L169.742 149.167L182.709 154.342L180.041 140.579L184.757 136.648L188.755 157.085L195.299 164.934L190.77 168.711L184.433 161.11L164.809 153.28Z" fill="white"/>
<path d="M198.565 127.468L204.268 124.515L215.815 132.364L216.177 118.35L221.629 115.527L221.127 136.346L225.826 145.421L220.589 148.133L216.039 139.344L198.565 127.468Z" fill="white"/>
<path d="M247.861 130.79C248.575 130.081 249.11 129.24 249.465 128.267C249.82 127.294 249.988 126.207 249.968 125.003C249.949 123.8 249.712 122.52 249.257 121.165C248.802 119.809 248.221 118.645 247.511 117.672C246.802 116.701 246.013 115.934 245.143 115.371C244.273 114.81 243.339 114.461 242.342 114.325C241.345 114.189 240.336 114.292 239.315 114.635C238.294 114.977 237.426 115.503 236.713 116.212C235.999 116.921 235.458 117.764 235.09 118.741C234.721 119.718 234.547 120.809 234.567 122.011C234.587 123.215 234.824 124.494 235.278 125.85C235.733 127.206 236.315 128.37 237.024 129.342C237.733 130.314 238.528 131.079 239.412 131.637C240.295 132.195 241.234 132.541 242.231 132.677C243.228 132.813 244.237 132.709 245.258 132.367C246.279 132.024 247.147 131.499 247.861 130.79ZM241.621 137.974C239.854 137.828 238.193 137.341 236.637 136.513C235.082 135.686 233.69 134.519 232.461 133.014C231.232 131.509 230.263 129.697 229.552 127.577C228.842 125.458 228.524 123.428 228.597 121.486C228.671 119.544 229.078 117.775 229.821 116.177C230.564 114.58 231.595 113.19 232.918 112.008C234.24 110.826 235.782 109.94 237.544 109.35C239.305 108.759 241.064 108.539 242.818 108.689C244.572 108.84 246.227 109.329 247.782 110.156C249.338 110.984 250.73 112.15 251.959 113.656C253.188 115.161 254.157 116.973 254.867 119.092C255.578 121.212 255.896 123.242 255.822 125.184C255.749 127.125 255.341 128.895 254.599 130.493C253.857 132.091 252.831 133.478 251.521 134.655C250.212 135.832 248.676 136.717 246.914 137.307C245.153 137.897 243.388 138.12 241.621 137.974Z" fill="white"/>
<path d="M265.228 129.05C262.923 127.363 261.47 124.577 260.869 120.692L258.255 103.807L264.082 102.905L266.628 119.35C266.995 121.719 267.713 123.413 268.785 124.432C269.855 125.452 271.389 125.807 273.384 125.498C275.353 125.194 276.714 124.39 277.466 123.089C278.218 121.787 278.412 119.952 278.045 117.583L275.499 101.137L281.127 100.266L283.741 117.151C284.338 121.009 283.775 124.101 282.05 126.425C280.325 128.75 277.68 130.188 274.114 130.739C270.495 131.3 267.533 130.737 265.228 129.05Z" fill="white"/>
<path d="M298.037 114.754C300.783 114.798 302.714 114.426 303.831 113.636C304.949 112.846 305.52 111.657 305.545 110.068C305.573 108.48 305.032 107.273 303.928 106.447C302.824 105.621 300.912 105.186 298.193 105.142L296.416 105.113L296.26 114.725L298.037 114.754ZM312.723 128.404L306.18 128.298L300.866 119.688C300.407 119.735 299.941 119.768 299.47 119.787C298.998 119.806 298.52 119.812 298.036 119.804L296.178 119.774L296.042 128.133L290.227 128.039L290.688 99.5663L296.625 99.6633C301.579 99.7433 305.287 100.605 307.752 102.247C310.217 103.89 311.42 106.528 311.362 110.163C311.33 112.101 310.893 113.744 310.049 115.09C309.205 116.437 307.996 117.487 306.424 118.243L312.723 128.404Z" fill="white"/>
<path d="M337.812 109.017L329.488 107.187L330.666 101.822L353.035 106.738L351.856 112.103L343.572 110.283L338.638 132.73L332.878 131.464L337.812 109.017Z" fill="white"/>
<path d="M362.449 121.223L356.083 128.239L362.919 130.716L362.449 121.223ZM349.478 135.555L343.972 133.559L365.368 110.681L367.304 111.383L369.225 142.712L363.416 140.606L363.179 135.923L352.622 132.097L349.478 135.555Z" fill="white"/>
<path d="M373.792 144.989C372.457 143.753 371.457 142.677 370.792 141.761L374.754 138.218C375.064 138.604 375.458 139.049 375.934 139.554C376.409 140.06 376.95 140.586 377.558 141.132C378.163 141.678 378.84 142.224 379.585 142.77C380.33 143.316 381.128 143.821 381.979 144.286C383.349 145.035 384.513 145.418 385.471 145.435C386.428 145.452 387.151 145.012 387.643 144.114C387.888 143.665 387.968 143.195 387.884 142.704C387.8 142.213 387.604 141.715 387.297 141.209C386.99 140.704 386.605 140.172 386.145 139.613C385.683 139.053 385.186 138.474 384.654 137.877C383.855 136.98 383.075 136.063 382.314 135.125C381.553 134.187 380.95 133.213 380.506 132.202C380.061 131.192 379.831 130.123 379.818 128.996C379.806 127.869 380.142 126.679 380.826 125.427C381.536 124.127 382.379 123.161 383.355 122.528C384.329 121.895 385.391 121.539 386.539 121.46C387.687 121.382 388.913 121.538 390.219 121.929C391.523 122.321 392.85 122.885 394.196 123.621C395.118 124.125 395.954 124.644 396.706 125.177C397.457 125.711 398.12 126.211 398.693 126.678C399.267 127.145 399.736 127.578 400.102 127.977C400.466 128.376 400.74 128.687 400.926 128.911L397.083 132.656C396.294 131.796 395.391 130.965 394.372 130.162C393.353 129.36 392.265 128.641 391.107 128.009C389.996 127.402 388.994 127.06 388.099 126.986C387.203 126.91 386.536 127.275 386.098 128.078C385.853 128.527 385.769 128.988 385.848 129.461C385.927 129.934 386.12 130.423 386.427 130.928C386.733 131.434 387.117 131.966 387.579 132.525C388.041 133.084 388.538 133.663 389.07 134.26C389.869 135.157 390.648 136.075 391.41 137.012C392.17 137.95 392.776 138.933 393.227 139.962C393.677 140.991 393.912 142.063 393.932 143.178C393.95 144.294 393.618 145.478 392.934 146.73C392.353 147.793 391.633 148.674 390.776 149.371C389.918 150.069 388.905 150.52 387.735 150.724C386.564 150.928 385.232 150.852 383.739 150.496C382.246 150.14 380.554 149.446 378.664 148.412C376.75 147.366 375.126 146.225 373.792 144.989Z" fill="white"/>
<path d="M410.592 140.892L403.753 135.806L407.031 131.398L425.408 145.066L422.13 149.474L415.323 144.412L401.608 162.853L396.876 159.333L410.592 140.892Z" fill="white"/>
<path d="M430.662 149.825L443.521 162.499L439.665 166.411L430.948 157.821L426.639 162.193L433.572 169.027L429.914 172.738L422.981 165.905L418.473 170.478L427.276 179.155L423.618 182.866L410.673 170.107L430.662 149.825Z" fill="white"/>
<path d="M449.645 169.78L453.186 174.138L437.731 186.695L434.19 182.337L449.645 169.78ZM428.369 187.535C428.446 186.605 428.892 185.809 429.708 185.147C430.459 184.535 431.303 184.283 432.241 184.39C433.177 184.496 433.942 184.915 434.537 185.647C435.148 186.399 435.406 187.239 435.31 188.167C435.213 189.095 434.79 189.865 434.038 190.476C433.222 191.138 432.356 191.417 431.438 191.313C430.52 191.208 429.756 190.78 429.145 190.028C428.55 189.296 428.291 188.465 428.369 187.535Z" fill="white"/>
<path d="M217.16 474.182C215.705 473.089 214.6 472.121 213.845 471.279L217.423 467.349C217.772 467.701 218.209 468.103 218.734 468.557C219.259 469.011 219.851 469.479 220.511 469.96C221.169 470.442 221.898 470.915 222.695 471.381C223.492 471.848 224.338 472.269 225.232 472.644C226.671 473.248 227.869 473.511 228.823 473.43C229.777 473.348 230.452 472.836 230.848 471.893C231.046 471.421 231.078 470.946 230.944 470.465C230.809 469.986 230.564 469.51 230.207 469.038C229.85 468.568 229.413 468.078 228.897 467.569C228.38 467.06 227.827 466.535 227.236 465.994C226.35 465.184 225.48 464.352 224.627 463.496C223.774 462.642 223.074 461.735 222.528 460.775C221.982 459.816 221.644 458.776 221.516 457.656C221.388 456.536 221.6 455.319 222.153 454.002C222.726 452.637 223.466 451.589 224.371 450.86C225.276 450.13 226.296 449.667 227.43 449.472C228.563 449.276 229.799 449.306 231.138 449.562C232.476 449.817 233.853 450.242 235.268 450.836C236.236 451.243 237.121 451.673 237.924 452.127C238.726 452.581 239.436 453.011 240.055 453.416C240.673 453.823 241.184 454.204 241.588 454.564C241.992 454.924 242.297 455.205 242.504 455.409L239.065 459.529C238.192 458.753 237.208 458.019 236.113 457.325C235.017 456.631 233.861 456.028 232.644 455.517C231.477 455.027 230.445 454.79 229.547 454.808C228.649 454.825 228.023 455.256 227.668 456.1C227.47 456.572 227.434 457.038 227.562 457.5C227.689 457.963 227.931 458.43 228.288 458.901C228.644 459.372 229.081 459.863 229.598 460.371C230.114 460.88 230.668 461.405 231.259 461.945C232.145 462.755 233.015 463.588 233.868 464.443C234.721 465.298 235.424 466.213 235.978 467.191C236.531 468.168 236.874 469.21 237.008 470.318C237.141 471.425 236.932 472.637 236.379 473.953C235.91 475.071 235.285 476.02 234.504 476.801C233.722 477.583 232.761 478.136 231.618 478.458C230.474 478.782 229.141 478.842 227.619 478.641C226.098 478.44 224.344 477.922 222.357 477.088C220.347 476.244 218.614 475.275 217.16 474.182Z" fill="white"/>
<path d="M248.896 456.211L254.551 457.885L246.468 485.19L240.813 483.516L248.896 456.211Z" fill="white"/>
<path d="M263.742 472.401L261.003 488.734L255.426 487.798L260.169 459.515L262.281 459.87L274.785 478.595L277.464 462.621L283.041 463.556L278.298 491.839L276.585 491.552L263.742 472.401Z" fill="white"/>
<path d="M295.498 491.959C293.826 491.285 292.367 490.319 291.122 489.06C289.876 487.802 288.891 486.25 288.167 484.407C287.443 482.563 287.101 480.444 287.139 478.048C287.178 475.679 287.588 473.585 288.372 471.766C289.155 469.947 290.19 468.422 291.476 467.19C292.762 465.959 294.238 465.033 295.904 464.414C297.571 463.795 299.318 463.5 301.149 463.53C302.657 463.555 303.947 463.703 305.021 463.977C306.094 464.25 306.871 464.498 307.352 464.721L305.691 469.986C305.396 469.874 305.055 469.761 304.666 469.647C304.277 469.533 303.888 469.438 303.499 469.365C303.109 469.292 302.727 469.231 302.351 469.185C301.975 469.139 301.651 469.112 301.383 469.108C298.879 469.067 296.899 469.871 295.446 471.517C293.991 473.163 293.241 475.427 293.195 478.308C293.171 479.735 293.339 481.023 293.697 482.174C294.056 483.324 294.572 484.309 295.245 485.128C295.919 485.946 296.743 486.579 297.719 487.025C298.695 487.473 299.788 487.706 301 487.726C301.915 487.74 302.785 487.66 303.609 487.485C304.434 487.311 305.035 487.158 305.414 487.029L306.994 491.822C306.342 492.108 305.463 492.383 304.353 492.647C303.245 492.912 302.059 493.034 300.793 493.014C298.936 492.984 297.17 492.632 295.498 491.959Z" fill="white"/>
<path d="M311.481 463.795L329.408 461.649L330.061 467.104L317.909 468.558L318.639 474.654L328.304 473.497L328.923 478.671L319.258 479.828L320.022 486.204L332.293 484.735L332.914 489.909L314.866 492.069L311.481 463.795Z" fill="white"/>
<path d="M350.887 484.97L354.256 476.688C355.086 474.631 355.76 472.903 356.28 471.5C356.799 470.099 357.178 468.898 357.418 467.899C357.658 466.9 357.772 466.055 357.759 465.366C357.746 464.676 357.635 464.011 357.426 463.37C357.083 462.322 356.431 461.628 355.471 461.29C354.511 460.952 353.148 461.072 351.381 461.649C350.92 461.799 350.436 461.987 349.928 462.209C349.42 462.432 348.92 462.68 348.43 462.953C347.938 463.228 347.481 463.497 347.058 463.763C346.635 464.029 346.274 464.268 345.975 464.479L343.28 460.005C343.991 459.405 344.969 458.759 346.216 458.068C347.463 457.377 348.779 456.805 350.16 456.354C351.619 455.877 353.007 455.593 354.324 455.503C355.639 455.413 356.846 455.55 357.943 455.914C359.038 456.279 359.992 456.88 360.806 457.719C361.617 458.559 362.246 459.657 362.69 461.013C363.033 462.063 363.225 463.105 363.265 464.139C363.306 465.174 363.214 466.281 362.991 467.459C362.766 468.637 362.403 469.932 361.901 471.342C361.399 472.753 360.788 474.355 360.072 476.147L359.268 478.109L368.943 474.948L370.487 479.669L351.213 485.968L350.887 484.97Z" fill="white"/>
<path d="M386.088 466.538C386.522 465.802 386.779 464.964 386.86 464.025C386.942 463.087 386.846 462.062 386.573 460.951C386.301 459.842 385.881 458.705 385.314 457.544C384.746 456.382 384.109 455.352 383.4 454.455C382.692 453.558 381.94 452.846 381.144 452.32C380.348 451.795 379.526 451.477 378.678 451.367C377.83 451.258 376.994 451.403 376.172 451.805C375.349 452.206 374.727 452.773 374.305 453.503C373.882 454.234 373.634 455.075 373.559 456.025C373.484 456.976 373.582 458.007 373.855 459.117C374.128 460.227 374.548 461.363 375.114 462.525C375.682 463.686 376.32 464.717 377.028 465.614C377.736 466.512 378.485 467.217 379.276 467.73C380.066 468.243 380.878 468.559 381.714 468.674C382.55 468.791 383.379 468.647 384.202 468.246C385.025 467.844 385.653 467.275 386.088 466.538ZM381.827 473.968C380.268 473.966 378.757 473.618 377.294 472.924C375.831 472.229 374.462 471.205 373.186 469.851C371.909 468.496 370.799 466.85 369.854 464.915C368.897 462.955 368.276 461.056 367.992 459.216C367.707 457.377 367.742 455.668 368.094 454.087C368.445 452.507 369.1 451.1 370.057 449.869C371.014 448.638 372.254 447.649 373.778 446.904C375.303 446.16 376.845 445.789 378.404 445.792C379.964 445.794 381.476 446.142 382.938 446.836C384.401 447.531 385.776 448.552 387.065 449.9C388.353 451.249 389.476 452.903 390.433 454.863C391.378 456.8 391.986 458.689 392.259 460.535C392.53 462.38 392.49 464.093 392.139 465.673C391.787 467.254 391.132 468.659 390.175 469.891C389.218 471.123 387.978 472.11 386.453 472.855C384.929 473.6 383.387 473.971 381.827 473.968Z" fill="white"/>
<path d="M392.947 442.545L389.326 444.904L386.437 440.471L394.865 434.981L410.299 458.671L405.493 461.802L392.947 442.545Z" fill="white"/>
<path d="M414.169 441.117L414.427 441.428C415.82 443.105 417.309 444.066 418.893 444.308C420.477 444.551 421.963 444.096 423.351 442.942C424.428 442.049 425.058 440.983 425.238 439.747C425.42 438.512 425.064 437.355 424.169 436.278C423.153 435.055 422.045 434.437 420.841 434.421C419.638 434.405 418.478 434.861 417.358 435.791C416.446 436.548 415.716 437.364 415.167 438.241C414.616 439.117 414.2 439.954 413.916 440.75C413.982 440.871 414.065 440.993 414.169 441.117ZM413.093 433.531C413.703 432.727 414.401 431.998 415.189 431.345C415.913 430.742 416.787 430.192 417.809 429.694C418.83 429.196 419.931 428.921 421.112 428.867C422.293 428.814 423.518 429.056 424.788 429.595C426.058 430.134 427.303 431.138 428.524 432.608C429.523 433.809 430.171 435.065 430.47 436.374C430.77 437.682 430.799 438.962 430.56 440.212C430.319 441.461 429.847 442.64 429.142 443.752C428.437 444.862 427.587 445.831 426.592 446.656C425.35 447.688 424.033 448.474 422.645 449.015C421.257 449.556 419.848 449.789 418.421 449.715C416.993 449.639 415.578 449.231 414.175 448.489C412.771 447.748 411.433 446.61 410.159 445.077C409.075 443.772 408.197 442.357 407.526 440.832C406.855 439.307 406.357 437.717 406.032 436.061C405.707 434.406 405.553 432.714 405.57 430.984C405.587 429.256 405.751 427.525 406.065 425.795L411.398 425.514C411.132 427.555 410.987 429.426 410.964 431.125C410.94 432.825 411.134 434.449 411.545 435.998C411.967 435.158 412.483 434.336 413.093 433.531Z" fill="white"/>
<path d="M298.873 515.887C263.521 515.887 228.37 507.319 197.221 491.109C167.078 475.421 140.549 452.576 120.501 425.041L117.391 420.387L127.777 419.744C147.01 446.16 172.46 468.076 201.376 483.124C231.248 498.67 264.961 506.887 298.873 506.887C354.348 506.887 403.936 488.522 442.281 453.777C479.796 419.783 503.564 371.47 509.206 317.74L518.391 311.387L518.157 318.679C505.964 434.792 415.791 515.887 298.873 515.887Z" fill="white"/>
<path d="M356.702 257.681C355.692 265.647 348.928 273.264 341.57 274.687C334.223 276.11 329.059 270.807 330.061 262.842C331.075 254.877 337.844 247.262 345.192 245.832C352.558 244.409 357.704 249.709 356.702 257.681Z" fill="white"/>
<path d="M220.524 361.361C219.923 361.524 219.349 361.66 218.793 361.763C209.395 363.585 201.967 361.75 196.541 356.269C191.11 350.777 189.037 342.984 190.303 332.879C191.539 323.057 195.76 314.111 202.946 306.055C210.149 297.989 218.283 293.062 227.349 291.311C237.468 289.349 245.04 291.003 250.066 296.288C255.092 301.558 256.911 309.75 255.519 320.837L251.341 354.052L227.886 358.611L231.828 327.221C232.283 323.653 231.834 320.942 230.487 319.146C229.148 317.317 227.114 316.675 224.399 317.194C221.932 317.676 219.677 319.068 217.633 321.358C215.593 323.647 214.405 326.143 214.071 328.81C213.719 331.621 214.248 333.765 215.648 335.269C217.05 336.753 218.997 337.265 221.515 336.774C222.17 336.65 222.821 336.459 223.471 336.217L220.524 361.361Z" fill="white"/>
<path d="M314.467 341.886L291.009 346.44L295.821 308.197C296.315 304.292 295.079 302.636 292.106 303.212C289.181 303.778 287.465 305.999 286.98 309.9L282.173 348.149L258.712 352.699L263.466 314.926C264.576 306.091 268.213 298.135 274.361 291.041C280.519 283.952 287.503 279.65 295.32 278.134C304.263 276.393 311.002 278.52 315.508 284.488C319.041 289.146 320.19 296.372 318.961 306.159L314.467 341.886Z" fill="white"/>
<path d="M458.916 223.415L447.256 316.146L423.803 320.685L435.462 227.959L458.916 223.415Z" fill="white"/>
<path d="M516.544 235.555L513.177 262.409C509.861 263.05 507.5 264.159 506.091 265.746C504.691 267.325 503.564 270.115 502.735 274.141C499.995 287.477 494.137 297.659 485.148 304.68C480.384 308.347 473.961 310.962 465.867 312.532L454.488 314.752L457.888 287.759L467.064 285.972C470.83 285.244 473.637 283.872 475.469 281.854C477.292 279.837 478.607 276.668 479.398 272.346C480.603 265.33 481.812 260.337 483.024 257.354C484.247 254.367 486.355 251.229 489.331 247.947C494.563 242.191 501.266 238.523 509.443 236.936L516.544 235.555Z" fill="white"/>
<path d="M463.485 248.661L466.8 244.932C464.69 242.341 463.878 239.215 464.372 235.526C464.883 231.827 466.589 228.34 469.495 225.072C472.567 221.628 475.914 219.536 479.547 218.804C483.175 218.067 486.15 218.887 488.456 221.268C490.692 223.569 491.518 226.679 490.952 230.606C490.392 234.516 488.561 238.212 485.454 241.694C482.233 245.306 478.633 247.746 474.672 249C470.7 250.266 466.974 250.155 463.485 248.661Z" fill="white"/>
<path d="M220.236 266.361C219.323 267.386 218.281 268.014 217.138 268.234C215.988 268.46 215.061 268.207 214.36 267.495C213.647 266.783 213.377 265.805 213.528 264.574C213.687 263.325 214.224 262.184 215.148 261.174C216.072 260.151 217.132 259.529 218.331 259.303C219.454 259.08 220.357 259.332 221.054 260.05C221.744 260.772 222.011 261.74 221.854 262.96C221.704 264.196 221.165 265.33 220.236 266.361ZM233.775 245.932C230.463 242.497 226.11 241.301 220.746 242.333C215.013 243.442 209.942 246.435 205.514 251.299C201.106 256.162 198.511 261.59 197.763 267.599C197.018 273.507 198.327 278.176 201.712 281.599C205.084 285.033 209.524 286.209 215.018 285.141C220.522 284.084 225.489 281.08 229.902 276.16C234.313 271.234 236.891 265.798 237.633 259.871C238.377 254.02 237.083 249.369 233.775 245.932Z" fill="white"/>
<path d="M264.51 214.299L261.629 237.156C264.648 234.466 267.52 232.856 270.263 232.326C274.421 231.517 277.516 232.507 279.544 235.282C281.574 238.07 282.246 242.219 281.547 247.755L278.763 269.854L262.576 272.991L264.739 255.82C264.986 253.814 264.959 252.514 264.655 251.902C264.354 251.289 263.64 251.096 262.507 251.314C260.685 251.661 259.597 253.291 259.235 256.196L256.988 274.078L240.782 277.224L248.307 217.441L264.51 214.299Z" fill="white"/>
<path d="M324.084 261.476L307.902 264.613L310.262 245.749C310.61 243.059 309.751 241.907 307.7 242.303C305.685 242.698 304.491 244.241 304.16 246.934L301.785 265.794L285.593 268.934L287.927 250.401C288.694 244.29 291.19 238.803 295.446 233.907C299.695 229.011 304.524 226.036 309.916 224.994C316.095 223.79 320.75 225.26 323.854 229.38C326.297 232.601 327.091 237.584 326.243 244.342L324.084 261.476Z" fill="white"/>
<path d="M173.624 232.312C173.624 232.312 162.524 320.269 162.374 321.498C159.968 340.618 157.57 347.52 150.311 355.366C144.148 362.008 137.466 366.227 129.923 367.687C122.383 369.144 116.306 367.526 111.675 362.829C107.047 358.13 105.244 351.731 106.262 343.644C107.297 335.402 110.846 327.947 116.9 321.287C122.966 314.624 129.909 310.535 137.767 309.006C142.927 308.007 147.401 308.526 151.172 310.545L154.628 283.067C150.516 282.608 146.101 282.833 141.353 283.75C126.75 286.584 113.829 294.188 102.562 306.581C91.2971 318.967 84.7071 332.828 82.7771 348.153C80.8911 363.189 84.2411 375.089 92.8451 383.822C101.445 392.564 112.762 395.579 126.776 392.866C140.795 390.142 153.43 382.507 164.684 369.947C175.83 357.504 182.018 344.123 185.185 322.254L185.202 322.253L197.081 227.772L173.624 232.312Z" fill="white"/>
<path d="M340.054 283.303C335.875 284.152 332.26 283.644 329.231 281.782L321.86 340.452L345.314 335.905L352.8 276.4C348.838 280.083 344.592 282.39 340.054 283.303Z" fill="white"/>
<path d="M382.068 300.975C380.325 299.599 379.643 297.454 380.011 294.503C380.344 291.841 381.531 289.361 383.57 287.071C385.624 284.759 387.875 283.38 390.344 282.891C392.932 282.397 394.96 282.855 396.404 284.303C397.154 285.054 397.663 285.993 397.935 287.077L389.319 288.75L388.431 295.797L420.608 289.57C420.852 288.484 421.032 287.478 421.149 286.539C422.433 276.343 420.401 268.449 415.077 262.861C409.742 257.259 402.409 255.374 393.092 257.175C384.016 258.935 375.898 263.865 368.719 271.949C361.538 280.028 357.327 288.989 356.09 298.819C354.714 309.773 356.58 317.839 361.709 323.013C366.824 328.182 374.509 329.772 384.756 327.787L410.144 322.866L413.34 297.462L389.647 302.055C386.349 302.693 383.817 302.338 382.068 300.975Z" fill="white"/>
<path d="M299.773 445.687C270.173 445.687 241.505 437.134 216.869 420.952L209.391 415.387L221.811 413.43C244.975 428.645 271.934 436.687 299.773 436.687C344.914 436.687 386.377 415.961 413.531 379.826L425.391 378.387L420.726 385.232C406.929 403.592 388.855 418.804 368.456 429.223C347.065 440.148 323.957 445.687 299.773 445.687Z" fill="white"/>
<path d="M190.043 204.036L176.391 207.387L183.102 198.307C211.959 163.341 254.483 143.286 299.772 143.286C343.691 143.286 385.377 162.348 414.143 195.584L417.391 199.387L407.338 201.473C380.283 170.215 341.077 152.286 299.772 152.286C257.179 152.286 217.184 171.148 190.043 204.036Z" fill="white"/>
<path d="M196.091 381.912L207.314 379.758L206.812 382.909L199.796 384.256L199.192 388.043L205.034 386.922L204.529 390.083L198.688 391.204L197.58 398.152L193.373 398.96L196.091 381.912Z" fill="white"/>
<path d="M212.136 388.951L214.18 388.559L214.311 381.49L212.136 388.951ZM210.869 392.25L209.461 395.872L205.2 396.689L212.034 378.852L217.625 377.779L219.007 394.04L214.736 394.86L214.456 391.561L210.869 392.25Z" fill="white"/>
<path d="M227.568 378.925L227.138 381.619C227.022 382.347 227.627 382.585 228.956 382.33C230.695 381.996 232.087 382.093 233.128 382.619C234.241 383.173 234.694 384.101 234.487 385.402L233.925 388.924C233.823 389.568 233.422 390.176 232.726 390.748C232.047 391.317 231.286 391.683 230.443 391.845L224.257 393.031C223.413 393.194 222.72 393.108 222.176 392.773C221.633 392.438 221.413 391.949 221.515 391.306L222.063 387.868L226.27 387.061L225.854 389.671L229.837 388.907L230.266 386.212C230.383 385.477 229.779 385.237 228.452 385.491C226.719 385.823 225.333 385.73 224.291 385.209C223.176 384.655 222.723 383.728 222.931 382.427L223.493 378.904C223.595 378.262 223.992 377.651 224.68 377.072C225.367 376.51 226.131 376.146 226.975 375.984L247.943 371.96L247.441 375.112L243.339 375.899L241.123 389.795L236.931 390.6L239.147 376.703L227.568 378.925Z" fill="white"/>
<path d="M257.897 379.769L247.966 381.674L248.445 378.672L258.376 376.767L257.897 379.769Z" fill="white"/>
<path d="M271.152 370.561L267.169 371.326L265.455 382.072L269.438 381.307L269.854 378.698L274.074 377.887L273.526 381.325C273.423 381.968 273.022 382.577 272.327 383.149C271.648 383.717 270.887 384.083 270.043 384.246L263.858 385.432C263.014 385.594 262.32 385.508 261.777 385.173C261.234 384.838 261.014 384.35 261.117 383.707L263.094 371.305C263.197 370.663 263.592 370.051 264.281 369.473C264.967 368.911 265.732 368.546 266.576 368.384L272.761 367.198C273.605 367.036 274.295 367.12 274.831 367.449C275.381 367.79 275.606 368.281 275.504 368.923L274.957 372.35L270.737 373.161L271.152 370.561Z" fill="white"/>
<path d="M282.108 375.523L284.152 375.13L284.283 368.061L282.108 375.523ZM280.84 378.821L279.432 382.444L275.172 383.261L282.005 365.423L287.597 364.35L288.979 380.612L284.708 381.431L284.427 378.133L280.84 378.821Z" fill="white"/>
<path d="M301.522 364.733L297.539 365.498L297.109 368.192C296.993 368.92 297.598 369.158 298.926 368.903C300.667 368.569 302.058 368.666 303.099 369.192C304.212 369.746 304.665 370.673 304.458 371.974L303.896 375.497C303.793 376.14 303.393 376.749 302.698 377.321C302.018 377.889 301.257 378.255 300.413 378.418L294.228 379.604C293.384 379.766 292.69 379.679 292.148 379.345C291.604 379.01 291.384 378.522 291.487 377.879L292.035 374.441L296.241 373.633L295.825 376.244L299.808 375.479L300.238 372.784C300.355 372.048 299.75 371.809 298.422 372.064C296.691 372.396 295.304 372.302 294.261 371.782C293.147 371.228 292.695 370.3 292.903 369L293.464 365.477C293.567 364.835 293.962 364.223 294.652 363.645C295.337 363.082 296.103 362.718 296.947 362.556L303.131 361.37C303.976 361.208 304.666 361.292 305.202 361.621C305.751 361.962 305.976 362.453 305.874 363.095L305.327 366.522L301.107 367.332L301.522 364.733Z" fill="white"/>
<path d="M311.78 373.182L315.763 372.417L317.979 358.52L322.199 357.709L319.851 372.434C319.749 373.078 319.348 373.686 318.653 374.258C317.973 374.828 317.212 375.193 316.368 375.355L310.183 376.541C309.34 376.703 308.645 376.618 308.103 376.284C307.559 375.949 307.34 375.459 307.442 374.816L309.79 360.091L313.996 359.284L311.78 373.182Z" fill="white"/>
<path d="M329.213 366.483L331.257 366.091L331.387 359.022L329.213 366.483ZM327.944 369.782L326.536 373.404L322.276 374.221L329.109 356.384L334.7 355.311L336.083 371.572L331.812 372.391L331.531 369.093L327.944 369.782Z" fill="white"/>
<path d="M338.523 371.104L341.242 354.055L345.45 353.249L343.234 367.146L349.075 366.025L348.572 369.175L338.523 371.104Z" fill="white"/>
<path d="M364.12 352.72L362.406 363.466L364.397 363.084C365.724 362.829 366.447 362.329 366.566 361.587L368.102 351.955L364.12 352.72ZM360.415 350.375L369.712 348.592C370.557 348.43 371.246 348.514 371.782 348.843C372.333 349.183 372.557 349.675 372.454 350.318L370.786 360.778C370.578 362.078 369.792 363.248 368.424 364.284C367.145 365.25 365.636 365.9 363.894 366.235L357.696 367.424L360.415 350.375Z" fill="white"/>
<path d="M374.036 364.289L376.755 347.241L380.961 346.434L378.242 363.481L374.036 364.289Z" fill="white"/>
<path d="M388.38 350.892L386.629 361.871L382.423 362.678L385.142 345.63L390.984 344.51L392.667 354.882L394.426 343.849L398.632 343.041L395.913 360.089L390.085 361.208L388.38 350.892Z" fill="white"/>
<path d="M400.094 359.288L402.813 342.24L407.019 341.433L404.3 358.48L400.094 359.288Z" fill="white"/>
<path d="M414.438 345.891L412.687 356.87L408.481 357.678L411.2 340.63L417.042 339.509L418.725 349.881L420.484 338.848L424.69 338.041L421.971 355.089L416.143 356.207L414.438 345.891Z" fill="white"/>
<path d="M435.1 346.676L433.109 347.059L433.612 343.908L439.823 342.716L438.721 349.622C438.619 350.266 438.218 350.873 437.522 351.447C436.843 352.015 436.081 352.381 435.238 352.543L429.053 353.73C428.208 353.892 427.515 353.805 426.973 353.471C426.429 353.136 426.209 352.648 426.312 352.004L428.289 339.603C428.392 338.96 428.788 338.349 429.477 337.771C430.163 337.207 430.927 336.844 431.772 336.682L437.956 335.494C438.8 335.333 439.491 335.417 440.026 335.746C440.577 336.086 440.801 336.578 440.699 337.221L440.152 340.648L435.932 341.457L436.347 338.859L432.364 339.623L430.65 350.369L434.633 349.605L435.1 346.676Z" fill="white"/>
<path d="M501.257 202.809C500.616 200.854 497.901 195.471 497.901 195.471C479.695 159.272 451.961 128.691 417.637 107.008C382.136 84.5805 341.07 72.7265 298.879 72.7265C239.404 72.7265 183.49 95.8875 141.435 137.943C99.3799 179.998 76.2189 235.913 76.2189 295.388C76.2189 296.316 76.2249 297.244 76.2359 298.17L76.3909 309.388C78.1549 306.419 80.9209 302.767 85.2359 298.059C85.2249 297.17 85.2189 296.279 85.2189 295.388C85.2189 238.317 107.444 184.662 147.799 144.307C188.154 103.952 241.808 81.7265 298.879 81.7265C339.366 81.7265 378.77 93.1005 412.83 114.617C445.505 135.258 471.946 164.306 489.424 198.674L490.3 200.427C492.674 200.595 496.848 201.644 501.257 202.809Z" fill="white"/>
</svg>
